<?xml version="1.0" encoding="UTF-8" standalone="no"?>
<!-- Created with Inkscape (http://www.inkscape.org/) -->

<svg
   xmlns:dc="http://purl.org/dc/elements/1.1/"
   xmlns:cc="http://creativecommons.org/ns#"
   xmlns:rdf="http://www.w3.org/1999/02/22-rdf-syntax-ns#"
   xmlns:svg="http://www.w3.org/2000/svg"
   xmlns="http://www.w3.org/2000/svg"
   xmlns:sodipodi="http://sodipodi.sourceforge.net/DTD/sodipodi-0.dtd"
   xmlns:inkscape="http://www.inkscape.org/namespaces/inkscape"
   width="210mm"
   height="297mm"
   viewBox="0 0 210 297"
   version="1.1"
   id="svg8"
   inkscape:version="0.92.3 (2405546, 2018-03-11)"
   sodipodi:docname="VIP Dogs Matzenberg Logo.svg">
  <defs
     id="defs2" />
  <sodipodi:namedview
     id="base"
     pagecolor="#ffffff"
     bordercolor="#666666"
     borderopacity="1.0"
     inkscape:pageopacity="0.0"
     inkscape:pageshadow="2"
     inkscape:zoom="0.70000001"
     inkscape:cx="-148.85622"
     inkscape:cy="437.54615"
     inkscape:document-units="mm"
     inkscape:current-layer="layer1"
     showgrid="false"
     inkscape:window-width="1920"
     inkscape:window-height="1009"
     inkscape:window-x="-8"
     inkscape:window-y="-8"
     inkscape:window-maximized="1" />
  <metadata
     id="metadata5">
    <rdf:RDF>
      <cc:Work
         rdf:about="">
        <dc:format>image/svg+xml</dc:format>
        <dc:type
           rdf:resource="http://purl.org/dc/dcmitype/StillImage" />
        <dc:title></dc:title>
      </cc:Work>
    </rdf:RDF>
  </metadata>
  <g
     inkscape:label="Ebene 1"
     inkscape:groupmode="layer"
     id="layer1">
    <path
       style="fill:#000000;stroke-width:0.55821592"
       d="m 78.648614,121.03184 c -2.11535,-0.17709 -2.512345,-0.42201 -3.105486,-1.91583 -1.081619,-2.72406 -1.405896,-10.57109 -0.571653,-13.83316 2.150932,-8.410621 9.145294,-15.567425 17.429674,-17.834465 8.307501,-2.273364 18.747591,0.08117 25.455601,5.740944 5.22047,4.404696 9.4541,12.220331 8.58797,15.854161 -0.64731,2.71578 -3.29516,5.86298 -5.66916,6.73828 -4.89019,1.80305 -6.49967,0.68628 -8.86109,-6.14844 -1.81551,-5.25469 -4.31,-9.784858 -5.21307,-9.46727 -0.34369,0.12086 -0.64945,-0.457045 -0.68277,-1.290486 -0.0332,-0.830151 -0.62237,-2.713287 -1.30931,-4.184738 -0.68693,-1.471456 -1.53121,-3.353189 -1.87616,-4.181636 l -0.62719,-1.506265 -0.95657,1.607563 c -0.90643,1.52332 -0.96706,1.544384 -1.15686,0.40189 -0.48694,-2.930895 -3.026978,0.114731 -3.026978,3.629471 0,2.379702 -0.0791,2.488678 -2.63804,3.634292 -1.571788,0.703684 -3.10775,1.914639 -3.800171,2.996059 -1.054065,1.64623 -5.512006,4.07428 -7.480467,4.07428 -0.340497,0 -0.623093,0.42199 -0.62799,0.93775 -0.0075,0.79571 -0.09196,0.81668 -0.557296,0.13844 -0.842551,-1.22804 -1.993037,0.13811 -1.53439,1.82204 0.596701,2.19078 3.364833,3.18021 7.875826,2.81508 2.434652,-0.19706 3.39797,-0.13679 2.656667,0.16623 -0.639663,0.26147 -1.902772,0.49235 -2.806906,0.51306 -1.790924,0.041 -5.043487,2.61015 -5.043487,3.98373 0,1.65384 1.154171,1.39757 1.988016,-0.44141 0.473104,-1.0434 1.113819,-1.89709 1.423818,-1.89709 0.309991,0 1.042963,-0.13592 1.628822,-0.30203 0.585866,-0.16612 0.329392,0.0905 -0.569934,0.57034 -2.647123,1.41229 -1.637737,2.16135 2.693436,1.9988 3.737591,-0.14027 3.867674,-0.10053 4.736113,1.44699 1.412384,2.51681 1.160323,3.60463 -0.924258,3.98881 -1.858421,0.3425 -11.079184,0.30942 -15.436707,-0.0554 z M 61.66742,104.76961 C 55.953338,102.66188 50.50186,94.758118 51.472778,89.989019 c 1.484493,-7.291752 13.314256,-5.520115 18.596045,2.784964 3.037475,4.776118 3.208009,8.723787 0.485243,11.232787 -1.192179,1.09857 -1.998652,1.33361 -4.480375,1.30576 -1.664575,-0.0186 -3.647396,-0.263 -4.406271,-0.54292 z m 31.327569,-2.33103 c 0,-0.49707 0.497192,-0.84307 1.211477,-0.84307 1.417171,0 1.216851,1.25217 -0.242023,1.51289 -0.573813,0.10254 -0.969454,-0.17081 -0.969454,-0.66982 z M 118.24416,88.260412 c -2.38905,-1.342461 -3.90574,-4.415168 -4.20643,-8.521962 -0.35412,-4.836536 0.73881,-7.852379 3.96259,-10.93439 2.40042,-2.294869 2.96634,-2.574937 5.20303,-2.574937 2.10159,0 2.81333,0.296701 4.37724,1.824738 5.40197,5.278048 3.63264,17.430664 -3.00042,20.608479 -1.86692,0.894415 -4.30417,0.739805 -6.33601,-0.401928 z M 75.180371,86.013503 c -2.834665,-0.765542 -7.488599,-5.155444 -9.328609,-8.799366 -3.726746,-7.380386 -0.987764,-15.060427 5.31241,-14.895865 6.218219,0.162427 12.779649,7.489476 13.529333,15.108009 0.613412,6.233703 -3.725456,10.15027 -9.513134,8.587222 z m 20.018791,-8.006954 c -1.172266,-0.890411 -2.835554,-2.990551 -3.696203,-4.666976 -1.340969,-2.612021 -1.555238,-3.695578 -1.497866,-7.574683 0.07875,-5.324786 1.330042,-8.251908 4.325648,-10.118891 4.633924,-2.88805 9.837529,-0.166943 12.575329,6.575959 1.36363,3.35848 1.58877,8.33878 0.52488,11.610924 -0.37582,1.155896 -1.61117,2.932096 -2.74522,3.947113 -1.73711,1.554779 -2.47881,1.845487 -4.708544,1.845487 -2.086849,0 -3.097444,-0.34242 -4.778024,-1.618933 z"
       id="path25"
       inkscape:connector-curvature="0" />
  </g>
</svg>
